<?xml version="1.0" encoding="utf-8"?>
<svg width="103px" height="103px" viewbox="0 0 103 103" version="1.1" xmlns:xlink="http://www.w3.org/1999/xlink" xmlns="http://www.w3.org/2000/svg">
  <g id="Group-13" transform="translate(0.39990234 0.4000244)">
    <path d="M51 102C79.1665 102 102 79.1665 102 51C102 22.8335 79.1665 0 51 0C22.8335 0 0 22.8335 0 51C0 79.1665 22.8335 102 51 102Z" id="Oval-Copy-3" fill="#B4A269" fill-rule="evenodd" stroke="none" />
    <g id="lift" transform="translate(26 17)">
      <path d="M0 3.23529L0 38.8235C0 40.6103 1.45135 42.0588 3.24169 42.0588L46.4642 42.0588C48.2545 42.0588 49.7059 40.6103 49.7059 38.8235L49.7059 3.23529C49.7059 1.44849 48.2545 0 46.4642 0L3.24169 0C1.45135 0 0 1.44849 0 3.23529ZM47.5448 3.23529L47.5448 38.8235C47.5448 39.4191 47.061 39.902 46.4642 39.902L3.24169 39.902C2.64491 39.902 2.16113 39.4191 2.16113 38.8235L2.16113 3.23529C2.16113 2.63969 2.64491 2.15686 3.24169 2.15686L46.4642 2.15686C47.061 2.15686 47.5448 2.63969 47.5448 3.23529Z" transform="translate(0 22.941177)" id="Shape" fill="#FFFFFF" stroke="#B4A269" stroke-width="0.8" />
      <path d="M11.4306 0.628493C10.5734 -0.209498 9.18373 -0.209498 8.32646 0.628493L0.642826 8.14156C0.0154477 8.7552 -0.172423 9.6778 0.166727 10.4796C0.505877 11.2814 1.30534 11.8047 2.19272 11.8058L4.38805 11.8058L4.38805 18.2456C4.38805 19.4311 5.37093 20.3922 6.58337 20.3922L13.1693 20.3922C14.3818 20.3922 15.3647 19.4311 15.3647 18.2456L15.3647 11.8058L17.56 11.8058C18.4478 11.8056 19.248 11.2826 19.5878 10.4806C19.9275 9.6786 19.7397 8.75547 19.1121 8.14156L11.4306 0.628493ZM17.5677 9.6592L14.267 9.6592C13.6608 9.6592 13.1693 10.1397 13.1693 10.7325L13.1693 18.2456L6.58337 18.2456L6.58337 10.7325C6.58337 10.1397 6.09193 9.6592 5.48571 9.6592L2.19272 9.6592L9.87635 2.14613L17.5655 9.6592L17.5677 9.6592Z" transform="translate(3.1862745 0)" id="Shape" fill="#FFFFFF" stroke="#B4A269" stroke-width="0.8" />
      <path d="M13.1701 0L6.58483 0C5.37252 0 4.38975 0.961062 4.38975 2.14659L4.38975 8.58636L2.19467 8.58636C1.30699 8.58655 0.506803 9.10955 0.167128 9.91155C-0.172547 10.7136 0.0151631 11.6367 0.642753 12.2506L8.32553 19.7637C9.18271 20.6017 10.5722 20.6017 11.4294 19.7637L19.1121 12.2506C19.7397 11.6367 19.9274 10.7136 19.5878 9.91155C19.2481 9.10955 18.4479 8.58655 17.5602 8.58636L15.3651 8.58636L15.3651 2.14659C15.3651 0.961062 14.3824 1.90656e-15 13.1701 1.90656e-15L13.1701 0ZM17.5602 10.733L9.87745 18.246L2.19467 10.733L5.48729 10.733C6.09345 10.733 6.58483 10.2524 6.58483 9.65966L6.58483 2.14659L13.1701 2.14659L13.1701 9.65966C13.1701 10.2524 13.6615 10.733 14.2676 10.733L17.5602 10.733Z" transform="translate(26.764706 0)" id="Shape" fill="#FFFFFF" stroke="#B4A269" stroke-width="0.8" />
      <path d="M3.29248 21.628C3.66721 21.6245 4.0385 21.5571 4.38998 21.4291L4.38998 32.4421C4.39898 34.2301 5.86782 35.6774 7.68246 35.6863C8.49556 35.683 9.27821 35.3811 9.87745 34.8395C10.4743 35.3848 11.2585 35.6873 12.0724 35.6863C13.8908 35.6863 15.3649 34.2338 15.3649 32.4421L15.3649 21.4291C15.7164 21.5571 16.0877 21.6245 16.4624 21.628C18.2808 21.628 19.7549 20.1756 19.7549 18.3838L19.7549 14.0582C19.7564 12.6238 19.1787 11.2476 18.1493 10.2333C17.1198 9.21898 15.7232 8.64978 14.2674 8.65122L14.2389 8.65122C14.9652 7.72079 15.3609 6.58084 15.3649 5.40701C15.3649 2.4208 12.9081 0 9.87745 0C6.8468 0 4.38998 2.4208 4.38998 5.40701C4.39401 6.58084 4.78968 7.72079 5.51601 8.65122L5.48747 8.65122C2.45833 8.65479 0.00362845 11.0735 0 14.0582L0 18.3838C0 20.1756 1.47409 21.628 3.29248 21.628ZM6.58497 5.40701C6.58497 3.61528 8.05906 2.1628 9.87745 2.1628C11.6958 2.1628 13.1699 3.61528 13.1699 5.40701C13.1699 7.19874 11.6958 8.65122 9.87745 8.65122C8.05906 8.65122 6.58497 7.19874 6.58497 5.40701ZM2.19499 14.0582C2.19499 12.2665 3.66908 10.814 5.48747 10.814L14.2674 10.814C15.1412 10.8123 15.9797 11.1535 16.5975 11.7623C17.2153 12.3711 17.5617 13.1973 17.5599 14.0582L17.5599 18.3838C17.5599 18.9811 17.0685 19.4652 16.4624 19.4652C15.8563 19.4652 15.3649 18.9811 15.3649 18.3838L15.3649 14.0582C15.3649 13.461 14.8736 12.9768 14.2674 12.9768C13.6613 12.9768 13.1699 13.461 13.1699 14.0582L13.1699 32.4421C13.1699 33.0393 12.6786 33.5235 12.0724 33.5235C11.7767 33.5244 11.4938 33.4046 11.291 33.1926C11.0862 32.9953 10.9721 32.7242 10.9749 32.4421L10.9749 21.628C10.9749 21.0308 10.4836 20.5466 9.87745 20.5466C9.27132 20.5466 8.77995 21.0308 8.77995 21.628L8.77995 32.4421C8.77995 33.0393 8.28859 33.5235 7.68246 33.5235C7.38675 33.5244 7.10385 33.4046 6.90104 33.1926C6.69625 32.9953 6.58208 32.7242 6.58497 32.4421L6.58497 14.0582C6.58497 13.461 6.0936 12.9768 5.48747 12.9768C4.88134 12.9768 4.38998 13.461 4.38998 14.0582L4.38998 18.3838C4.38998 18.9811 3.89861 19.4652 3.29248 19.4652C2.68635 19.4652 2.19499 18.9811 2.19499 18.3838L2.19499 14.0582Z" transform="translate(4.4607844 26.12745)" id="Shape" fill="#FFFFFF" stroke="#B4A269" stroke-width="0.8" />
      <path d="M3.29248 21.628C3.66721 21.6245 4.0385 21.5571 4.38998 21.4291L4.38998 32.4421C4.39898 34.2301 5.86782 35.6774 7.68246 35.6863C8.49556 35.683 9.27821 35.3811 9.87745 34.8395C10.4743 35.3848 11.2585 35.6873 12.0724 35.6863C13.8908 35.6863 15.3649 34.2338 15.3649 32.4421L15.3649 21.4291C15.7164 21.5571 16.0877 21.6245 16.4624 21.628C18.2808 21.628 19.7549 20.1756 19.7549 18.3838L19.7549 14.0582C19.7564 12.6238 19.1787 11.2476 18.1493 10.2333C17.1198 9.21898 15.7232 8.64978 14.2674 8.65122L14.2389 8.65122C14.9652 7.72079 15.3609 6.58084 15.3649 5.40701C15.3649 2.4208 12.9081 0 9.87745 0C6.8468 0 4.38998 2.4208 4.38998 5.40701C4.39401 6.58084 4.78968 7.72079 5.51601 8.65122L5.48747 8.65122C2.45833 8.65479 0.00362843 11.0735 0 14.0582L0 18.3838C0 20.1756 1.47409 21.628 3.29248 21.628ZM6.58497 5.40701C6.58497 3.61528 8.05906 2.1628 9.87745 2.1628C11.6958 2.1628 13.1699 3.61528 13.1699 5.40701C13.1699 7.19874 11.6958 8.65122 9.87745 8.65122C8.05906 8.65122 6.58497 7.19874 6.58497 5.40701ZM2.19499 14.0582C2.19499 12.2665 3.66908 10.814 5.48747 10.814L14.2674 10.814C15.1412 10.8123 15.9797 11.1535 16.5975 11.7623C17.2153 12.3711 17.5617 13.1973 17.5599 14.0582L17.5599 18.3838C17.5599 18.9811 17.0685 19.4652 16.4624 19.4652C15.8563 19.4652 15.3649 18.9811 15.3649 18.3838L15.3649 14.0582C15.3649 13.461 14.8736 12.9768 14.2674 12.9768C13.6613 12.9768 13.1699 13.461 13.1699 14.0582L13.1699 32.4421C13.1699 33.0393 12.6786 33.5235 12.0724 33.5235C11.7767 33.5244 11.4938 33.4046 11.291 33.1926C11.0862 32.9953 10.9721 32.7242 10.9749 32.4421L10.9749 21.628C10.9749 21.0308 10.4836 20.5466 9.87745 20.5466C9.27132 20.5466 8.77995 21.0308 8.77995 21.628L8.77995 32.4421C8.77995 33.0393 8.28859 33.5235 7.68246 33.5235C7.38675 33.5244 7.10385 33.4046 6.90104 33.1926C6.69625 32.9953 6.58208 32.7242 6.58497 32.4421L6.58497 14.0582C6.58497 13.461 6.0936 12.9768 5.48747 12.9768C4.88134 12.9768 4.38998 13.461 4.38998 14.0582L4.38998 18.3838C4.38998 18.9811 3.89861 19.4652 3.29248 19.4652C2.68635 19.4652 2.19499 18.9811 2.19499 18.3838L2.19499 14.0582Z" transform="translate(25.490196 26.12745)" id="Shape" fill="#FFFFFF" stroke="#B4A269" stroke-width="0.8" />
    </g>
  </g>
</svg>