<?xml version="1.0" encoding="utf-8"?>
<svg width="103px" height="103px" viewbox="0 0 103 103" version="1.1" xmlns:xlink="http://www.w3.org/1999/xlink" xmlns="http://www.w3.org/2000/svg">
  <g id="Group-10" transform="translate(0.30004883 0.30004883)">
    <path d="M51 102C79.1665 102 102 79.1665 102 51C102 22.8335 79.1665 0 51 0C22.8335 0 0 22.8335 0 51C0 79.1665 22.8335 102 51 102Z" id="Oval" fill="#B4A269" fill-rule="evenodd" stroke="none" />
    <g id="waiting-room" transform="translate(19 17)">
      <path d="M61.3905 15.9503L61.315 15.9503L61.315 3.02556C61.315 1.3571 59.9567 0 58.2874 0L47.5322 0C45.8628 0 44.5046 1.35722 44.5046 3.02556L44.5046 15.9502L40.4035 15.9502L40.4035 3.02556C40.4035 1.3571 39.0468 0 37.3793 0L26.6208 0C24.9514 0 23.5932 1.35722 23.5932 3.02556L23.5932 15.9502L19.4955 15.9502L19.4955 3.02556C19.4955 1.3571 18.1373 0 16.4679 0L5.70926 0C4.03988 0 2.68163 1.35722 2.68163 3.02556L2.68163 15.9502L2.60963 15.9502C1.17063 15.9503 0 17.1201 0 18.5582L0 20.4941C0 21.932 1.17063 23.1019 2.60963 23.1019L7.91752 23.1019L7.91752 27.8732L3.45276 27.8732C2.10563 27.8732 1.00975 28.9699 1.00975 30.3182L1.00975 32.5549C1.00975 33.9033 2.10575 35 3.45276 35L29.6391 35C30.1608 35 30.5837 34.5771 30.5837 34.0554C30.5837 33.5337 30.1608 33.1108 29.6391 33.1108L3.45276 33.1108C3.15251 33.1108 2.89888 32.8562 2.89888 32.5549L2.89888 30.3182C2.89888 30.0169 3.15251 29.7624 3.45276 29.7624L59.9026 29.7624C60.2029 29.7624 60.4565 30.017 60.4565 30.3182L60.4565 32.5549C60.4565 32.8563 60.2029 33.1108 59.9026 33.1108L33.9678 33.1108C33.4461 33.1108 33.0232 33.5337 33.0232 34.0554C33.0232 34.5771 33.4461 35 33.9678 35L59.9026 35C61.2497 35 62.3456 33.9033 62.3456 32.5549L62.3456 30.3182C62.3456 28.9699 61.2496 27.8732 59.9026 27.8732L56.079 27.8732L56.079 23.1019L61.3904 23.1019C62.8294 23.1019 64 21.932 64 20.4941L64 18.5582C64.0001 17.1201 62.8295 15.9503 61.3905 15.9503ZM46.3937 3.02556C46.3937 2.39895 46.9045 1.88908 47.5321 1.88908L58.2872 1.88908C58.9149 1.88908 59.4256 2.39895 59.4256 3.02556L59.4256 15.9502L46.3937 15.9502L46.3937 3.02556ZM25.4824 3.02556C25.4824 2.39895 25.9932 1.88908 26.6208 1.88908L37.3793 1.88908C38.0051 1.88908 38.5142 2.39895 38.5142 3.02556L38.5142 15.9502L25.4824 15.9502L25.4824 3.02556ZM4.57088 3.02556C4.57088 2.39895 5.08163 1.88908 5.70926 1.88908L16.4679 1.88908C17.0955 1.88908 17.6063 2.39895 17.6063 3.02556L17.6063 15.9502L4.57088 15.9502L4.57088 3.02556ZM9.80677 23.1019L12.3705 23.1019L12.3705 27.8732L9.80677 27.8732L9.80677 23.1019ZM33.2818 23.1019L33.2818 27.8732L30.7182 27.8732L30.7182 23.1019L33.2818 23.1019ZM49.7405 23.1019L49.7405 27.8732L35.1711 27.8732L35.1711 23.1019L49.7405 23.1019ZM54.1899 27.8732L51.6296 27.8732L51.6296 23.1019L54.1899 23.1019L54.1899 27.8732ZM62.1109 20.4941C62.1109 20.8903 61.7878 21.2128 61.3905 21.2128L24.063 21.2128C23.5413 21.2128 23.1184 21.6357 23.1184 22.1574C23.1184 22.6791 23.5413 23.102 24.063 23.102L28.8291 23.102L28.8291 27.8733L14.2597 27.8733L14.2597 23.102L19.5144 23.102C20.0362 23.102 20.459 22.6791 20.459 22.1574C20.459 21.6357 20.0362 21.2128 19.5144 21.2128L2.60963 21.2128C2.21238 21.2128 1.88925 20.8904 1.88925 20.4941L1.88925 18.5582C1.88925 18.162 2.21238 17.8394 2.60963 17.8394L3.62626 17.8394L18.5509 17.8394L24.5377 17.8394L39.4588 17.8394L45.4492 17.8394L60.3704 17.8394L61.3905 17.8394C61.7878 17.8394 62.1109 18.1619 62.1109 18.5582L62.1109 20.4941Z" transform="translate(0 26)" id="Shape" fill="#FFFFFF" stroke="#B4A269" stroke-width="0.6" />
      <path d="M8.50208 17C10.8737 17 13.0731 16.0483 14.6948 14.3201C16.3185 12.5896 17.1312 10.3304 16.9827 7.95872C16.8559 5.92035 15.9955 3.99584 14.5622 2.54182C12.9563 0.902629 10.804 0 8.50195 0C6.20164 0 4.04852 0.90238 2.43935 2.5407C1.0043 4.00046 0.144275 5.92459 0.0176723 7.95772C-0.132505 10.3274 0.678378 12.5855 2.30064 14.3158C3.92378 16.0468 6.12618 17 8.50208 17ZM1.89926 8.07622C1.99767 6.49584 2.66673 5.00011 3.78346 3.86424C5.03565 2.58939 6.71142 1.88729 8.50208 1.88729C10.2936 1.88729 11.9679 2.58914 13.2183 3.86549C14.3339 4.99711 15.0026 6.49259 15.1013 8.07659C15.2168 9.92293 14.5843 11.6814 13.3207 13.0281C12.0591 14.3725 10.3479 15.113 8.50208 15.113C6.6523 15.113 4.93823 14.3712 3.67544 13.0243C2.41315 11.678 1.78238 9.92106 1.89926 8.07622L1.89926 8.07622Z" transform="translate(24 0)" id="Shape" fill="#FFFFFF" stroke="#B4A269" stroke-width="0.6" />
      <path d="M0.95637 6L3.04363 6C3.57187 6 4 5.57774 4 5.05675L4 0.943249C4 0.422259 3.57187 0 3.04363 0C2.51539 0 2.08726 0.422259 2.08726 0.943249L2.08726 4.1135L0.95637 4.1135C0.428133 4.1135 0 4.53576 0 5.05675C0 5.57774 0.428133 6 0.95637 6Z" transform="translate(30 4)" id="Path" fill="#FFFFFF" fill-rule="evenodd" stroke="#B4A269" stroke-width="0.6" />
    </g>
  </g>
</svg>