<?xml version="1.0" encoding="utf-8"?>
<svg width="103px" height="103px" viewbox="0 0 103 103" version="1.1" xmlns:xlink="http://www.w3.org/1999/xlink" xmlns="http://www.w3.org/2000/svg">
  <g id="Group-8" transform="translate(0.39990234 0.4000244)">
    <path d="M51 102C79.1665 102 102 79.1665 102 51C102 22.8335 79.1665 0 51 0C22.8335 0 0 22.8335 0 51C0 79.1665 22.8335 102 51 102Z" id="Oval-Copy-6" fill="#B4A269" fill-rule="evenodd" stroke="none" />
    <g id="security-(1)" transform="translate(29 22)">
      <path d="M42.287 39.3514C41.1666 37.7128 39.5948 36.4612 37.7416 35.7318L29.6723 32.5565C31.7824 30.5153 32.9998 27.7017 32.9998 24.7187C32.9998 23.5393 32.8144 22.3907 32.4484 21.2908C32.7843 21.0985 32.9998 20.7402 32.9998 20.3437L32.9998 16.9926L34.9196 13.1746L36.7917 12.244C37.1645 12.0587 37.3998 11.6799 37.3998 11.2657L37.3998 7.98436C37.3998 7.51361 37.0969 7.09569 36.6476 6.94672L33.5194 5.90996L25.9638 0.221703C25.7727 0.0778748 25.5395 0 25.2998 0L18.6998 0C18.46 0 18.227 0.0778748 18.0359 0.221703L10.4802 5.90985L7.35205 6.94661C6.90281 7.09547 6.59987 7.5135 6.59987 7.98425L6.59987 11.2655C6.59987 11.6798 6.83527 12.0585 7.20795 12.2437L9.08004 13.1744L10.9999 16.9924L10.9999 20.3437C10.9999 20.7402 11.2151 21.0984 11.5512 21.2908C11.185 22.3903 10.9999 23.5388 10.9999 24.7187C10.9999 27.7016 12.2171 30.5151 14.3265 32.5556L6.25656 35.7319C4.40362 36.4611 2.83216 37.7128 1.71204 39.3514C0.591909 40.9898 0 42.9031 0 44.8841L0 54.9061C0 55.5102 0.492579 55.9999 1.1 55.9999L20.8985 55.9999C20.8994 55.9999 20.9002 56 20.901 56C20.9018 56 20.9027 55.9999 20.9035 55.9999L23.0965 55.9999C23.0973 55.9999 23.0982 56 23.099 56C23.0998 56 23.1006 55.9999 23.1015 55.9999L42.9 55.9999C43.5074 55.9999 44 55.5102 44 54.9061L44 44.8852C43.9998 42.9038 43.4075 40.9903 42.287 39.3514ZM33.1289 36.2692L26.3998 47.3538L26.3998 44.0419C26.3998 43.3356 26.1652 42.6362 25.7398 42.0732L23.7982 39.499C24.7013 38.9128 25.2998 37.8999 25.2998 36.7499L25.2998 35.1534C26.1192 34.898 26.9023 34.5492 27.6401 34.1094L33.1289 36.2692ZM10.8837 11.8702C10.7772 11.6586 10.6046 11.4869 10.3917 11.3811L8.79976 10.5897L8.79976 8.77273L11.3476 7.92825C11.4613 7.89052 11.5681 7.83463 11.6637 7.76266L19.0692 2.1875L24.9303 2.1875L32.3357 7.76266C32.4313 7.83463 32.5381 7.89052 32.6519 7.92825L35.1997 8.77273L35.1997 10.5897L33.6078 11.3811C33.3948 11.487 33.2222 11.6586 33.1157 11.8702L31.2199 15.6406L12.7797 15.6406L10.8837 11.8702ZM13.1999 17.8281L30.7998 17.8281L30.7998 19.5516L27.9232 20.4924C26.0031 21.1195 24.0061 21.4375 21.9876 21.4375C20.9762 21.4375 19.9586 21.3564 18.9631 21.1966C17.9696 21.0371 16.9774 20.796 16.0149 20.4801L13.8902 19.781C13.7956 19.6713 13.6777 19.5783 13.5388 19.5108C13.429 19.4576 13.3147 19.425 13.1999 19.4099L13.1999 17.8281ZM13.1999 24.7187C13.1999 23.7827 13.346 22.8721 13.6334 22.0005L15.3245 22.5571C16.3981 22.9094 17.5043 23.1783 18.6125 23.3562C19.7235 23.5346 20.8591 23.6251 21.9877 23.6251C24.2398 23.6251 26.4678 23.2704 28.6103 22.5706L30.3659 21.9967C30.6538 22.8696 30.7999 23.7817 30.7999 24.7188C30.7999 27.6217 29.3586 30.3249 26.9423 31.959C26.9253 31.9696 26.9089 31.9812 26.8924 31.9927C25.9963 32.5908 25.0089 33.0148 23.9564 33.2521C22.6822 33.5399 21.3179 33.5399 20.0433 33.2521C18.9849 33.0135 17.9909 32.5856 17.0881 31.98C14.6534 30.3491 13.1999 27.6346 13.1999 24.7187ZM23.0998 35.6009L23.0998 36.7499C23.0998 37.353 22.6063 37.8437 21.9998 37.8437C21.7064 37.8437 21.4301 37.7298 21.2224 37.5231C21.0143 37.3164 20.8998 37.0417 20.8998 36.7499L20.8998 35.6009C21.2647 35.637 21.6319 35.6562 21.9998 35.6562C22.3678 35.6562 22.735 35.637 23.0998 35.6009ZM16.3585 34.1083C17.0973 34.5488 17.8807 34.8979 18.6998 35.1533L18.6998 36.7499C18.6998 37.626 19.0432 38.4499 19.6667 39.07C19.8312 39.2334 20.0102 39.3769 20.2002 39.5005L18.2604 42.0724C17.8345 42.6362 17.5998 43.3356 17.5998 44.0419L17.5998 47.3542L10.8707 36.2683L16.3585 34.1083ZM2.19988 53.8124L2.19988 44.8841C2.19988 41.7233 4.11003 38.9292 7.06616 37.7658L8.79657 37.0847L17.6668 51.698L18.9508 53.8124L2.19988 53.8124ZM24.1997 50.9777L22.479 53.8124L21.5206 53.8124L19.7997 50.9785L19.7997 44.0419C19.7997 43.8065 19.8776 43.5737 20.0197 43.3857L21.9997 40.7605L23.9803 43.3865C24.1218 43.5737 24.1997 43.8065 24.1997 44.0419L24.1997 50.9777L24.1997 50.9777ZM25.0487 53.8124L35.2032 37.0855L36.9323 37.7659C39.8892 38.9296 41.7998 41.7241 41.7998 44.8852L41.7998 53.8124L25.0487 53.8124Z" id="Shape" fill="#FFFFFF" stroke="#B4A269" stroke-width="0.8" />
      <path d="M4.5 0C2.0187 0 0 1.7944 0 4C0 6.2056 2.0187 8 4.5 8C6.9813 8 9 6.2056 9 4C9 1.7944 6.9813 0 4.5 0ZM4.5 6C3.25935 6 2.25 5.1028 2.25 4C2.25 2.8972 3.25924 2 4.5 2C5.74065 2 6.75 2.8972 6.75 4C6.75 5.1028 5.74065 6 4.5 6Z" transform="translate(18 6)" id="Shape" fill="#FFFFFF" stroke="#B4A269" stroke-width="0.8" />
    </g>
  </g>
</svg>