<?xml version="1.0" encoding="utf-8"?>
<svg width="103px" height="103px" viewbox="0 0 103 103" version="1.1" xmlns:xlink="http://www.w3.org/1999/xlink" xmlns="http://www.w3.org/2000/svg">
  <g id="Group-11" transform="translate(0.39990234 0.4000244)">
    <path d="M51 102C79.1665 102 102 79.1665 102 51C102 22.8335 79.1665 0 51 0C22.8335 0 0 22.8335 0 51C0 79.1665 22.8335 102 51 102Z" id="Oval-Copy" fill="#B4A269" fill-rule="evenodd" stroke="none" />
    <g id="gym" transform="translate(18 30)">
      <path d="M61.7419 17.2002L61.7419 7.52549C61.7428 5.98343 60.9254 4.55912 59.5999 3.79332C58.2744 3.02753 56.6442 3.0377 55.3282 3.81997C55.076 1.55274 53.1142 -0.120867 50.8584 0.00684585C48.6026 0.134559 46.8384 2.01913 46.8387 4.30061L46.8387 17.2002L19.1613 17.2002L19.1613 4.30061C19.1585 2.02142 17.3951 0.140357 15.1416 0.0127628C12.8881 -0.114832 10.9275 1.55537 10.6724 3.81997C9.3564 3.03735 7.72594 3.02699 6.40025 3.79283C5.07457 4.55867 4.25701 5.98322 4.25806 7.52549L4.25806 17.2002C1.9064 17.2002 2.3637e-16 19.1253 0 21.5C-2.3637e-16 23.8747 1.9064 25.7998 4.25806 25.7998L4.25806 35.4745C4.25701 37.0168 5.07457 38.4413 6.40025 39.2072C7.72594 39.973 9.3564 39.9627 10.6724 39.18C10.9275 41.4446 12.8881 43.1148 15.1416 42.9872C17.3951 42.8596 19.1585 40.9786 19.1613 38.6994L19.1613 25.7998L46.8387 25.7998L46.8387 38.6994C46.8384 40.9809 48.6026 42.8654 50.8584 42.9932C53.1142 43.1209 55.076 41.4473 55.3282 39.18C56.6442 39.9623 58.2744 39.9725 59.5999 39.2067C60.9254 38.4409 61.7428 37.0166 61.7419 35.4745L61.7419 25.7998C64.0936 25.7998 66 23.8747 66 21.5C66 19.1253 64.0936 17.2002 61.7419 17.2002ZM4.25806 23.6499C3.08223 23.6499 2.12903 22.6874 2.12903 21.5C2.12903 20.3126 3.08223 19.3501 4.25806 19.3501L4.25806 23.6499ZM8.51613 37.6244C7.34087 37.623 6.38849 36.6613 6.3871 35.4745L6.3871 7.52549C6.3871 6.33812 7.3403 5.37557 8.51613 5.37557C9.69196 5.37557 10.6452 6.33812 10.6452 7.52549L10.6452 35.4745C10.6438 36.6613 9.69138 37.623 8.51613 37.6244L8.51613 37.6244ZM17.0323 38.6994C17.0323 39.8868 16.0791 40.8493 14.9032 40.8493C13.7274 40.8493 12.7742 39.8868 12.7742 38.6994L12.7742 4.30061C12.7742 3.11324 13.7274 2.15068 14.9032 2.15068C16.0791 2.15068 17.0323 3.11324 17.0323 4.30061L17.0323 38.6994ZM19.1613 23.6499L19.1613 19.3501L46.8387 19.3501L46.8387 23.6499L19.1613 23.6499ZM53.2258 38.6994C53.2258 39.8868 52.2726 40.8493 51.0968 40.8493C49.9209 40.8493 48.9677 39.8868 48.9677 38.6994L48.9677 4.30061C48.9677 3.11324 49.9209 2.15068 51.0968 2.15068C52.2726 2.15068 53.2258 3.11324 53.2258 4.30061L53.2258 38.6994ZM59.6129 35.4745C59.6129 36.6619 58.6597 37.6244 57.4839 37.6244C56.308 37.6244 55.3548 36.6619 55.3548 35.4745L55.3548 7.52549C55.3548 6.33812 56.308 5.37557 57.4839 5.37557C58.6597 5.37557 59.6129 6.33812 59.6129 7.52549L59.6129 35.4745ZM61.7419 23.6499L61.7419 19.3501C62.9178 19.3501 63.871 20.3126 63.871 21.5C63.871 22.6874 62.9178 23.6499 61.7419 23.6499Z" transform="matrix(1 0 0 1 0 4.440892E-16)" id="Shape" fill="#FFFFFF" stroke="#B4A269" stroke-width="0.8" />
    </g>
  </g>
</svg>