<?xml version="1.0" encoding="utf-8"?>
<svg width="103px" height="103px" viewbox="0 0 103 103" version="1.1" xmlns:xlink="http://www.w3.org/1999/xlink" xmlns="http://www.w3.org/2000/svg">
  <g id="Group-9" transform="translate(0.25 0.25)">
    <path d="M51 102C79.1665 102 102 79.1665 102 51C102 22.8335 79.1665 0 51 0C22.8335 0 0 22.8335 0 51C0 79.1665 22.8335 102 51 102Z" id="Oval-Copy-10" fill="#B4A269" fill-rule="evenodd" stroke="none" />
    <g id="Group-4" transform="translate(25 25)">
      <path d="M51.5472 11.3924L26.3735 0.0716878C26.161 -0.0238959 25.9223 -0.0238959 25.7098 0.0716878L0.536177 11.3924C0.21164 11.5384 -3.94228e-06 11.8825 0 12.2642L0 16.0377C1.85303e-05 16.3527 0.144698 16.647 0.385667 16.822C0.626637 16.9971 0.932101 17.0299 1.19993 16.9094L2.60417 16.278L2.60417 49.0566C2.60417 49.5776 2.99281 50 3.47222 50L48.6111 50C49.0905 50 49.4792 49.5776 49.4792 49.0566L49.4792 16.278L50.8834 16.9094C51.1512 17.0299 51.4567 16.9971 51.6977 16.822C51.9386 16.647 52.0833 16.3527 52.0833 16.0377L52.0833 12.2642C52.0833 11.8825 51.8717 11.5384 51.5472 11.3924ZM4.34028 15.4972L10.4167 12.7646L10.4167 19.8113L8.68056 19.8113C8.20114 19.8113 7.8125 20.2337 7.8125 20.7547L7.8125 48.1132L4.34028 48.1132L4.34028 15.4972ZM16.4931 31.1321L21.7014 31.1321L21.7014 33.9623L18.2292 33.9623L18.2292 35.8491L21.7014 35.8491L21.7014 38.6792L18.2292 38.6792L18.2292 40.566L21.7014 40.566L21.7014 43.3962L18.2292 43.3962L18.2292 45.283L21.7014 45.283L21.7014 48.1132L16.4931 48.1132L16.4931 31.1321ZM23.4375 31.1321L28.6458 31.1321L28.6458 33.9623L25.1736 33.9623L25.1736 35.8491L28.6458 35.8491L28.6458 38.6792L25.1736 38.6792L25.1736 40.566L28.6458 40.566L28.6458 43.3962L25.1736 43.3962L25.1736 45.283L28.6458 45.283L28.6458 48.1132L23.4375 48.1132L23.4375 31.1321ZM30.3819 31.1321L35.5903 31.1321L35.5903 33.9623L32.1181 33.9623L32.1181 35.8491L35.5903 35.8491L35.5903 38.6792L32.1181 38.6792L32.1181 40.566L35.5903 40.566L35.5903 43.3962L32.1181 43.3962L32.1181 45.283L35.5903 45.283L35.5903 48.1132L30.3819 48.1132L30.3819 31.1321ZM37.3264 31.1321L42.5347 31.1321L42.5347 33.9623L39.0625 33.9623L39.0625 35.8491L42.5347 35.8491L42.5347 38.6792L39.0625 38.6792L39.0625 40.566L42.5347 40.566L42.5347 43.3962L39.0625 43.3962L39.0625 45.283L42.5347 45.283L42.5347 48.1132L37.3264 48.1132L37.3264 31.1321ZM42.5347 29.2453L12.1528 29.2453L12.1528 31.1321L14.7569 31.1321L14.7569 33.9623L11.2847 33.9623L11.2847 35.8491L14.7569 35.8491L14.7569 38.6792L11.2847 38.6792L11.2847 40.566L14.7569 40.566L14.7569 43.3962L11.2847 43.3962L11.2847 45.283L14.7569 45.283L14.7569 48.1132L9.54861 48.1132L9.54861 21.6981L42.5347 21.6981L42.5347 29.2453ZM34.7222 19.8113L34.7222 9.64165L39.9306 11.9839L39.9306 19.8113L34.7222 19.8113ZM32.9861 19.8113L26.9097 19.8113L26.9097 6.1283L32.9861 8.86091L32.9861 19.8113ZM25.1736 19.8113L19.0972 19.8113L19.0972 8.86091L25.1736 6.1283L25.1736 19.8113ZM17.3611 19.8113L12.1528 19.8113L12.1528 11.9839L17.3611 9.64165L17.3611 19.8113ZM47.7431 48.1132L44.2708 48.1132L44.2708 20.7547C44.2708 20.2337 43.8822 19.8113 43.4028 19.8113L41.6667 19.8113L41.6667 12.7646L47.7431 15.4972L47.7431 48.1132ZM50.3472 14.6264L26.3735 3.84527C26.161 3.74969 25.9223 3.74969 25.7098 3.84527L1.73611 14.6264L1.73611 12.8948L26.0417 1.96435L50.3472 12.8948L50.3472 14.6264Z" id="Shape" fill="#FFFFFF" stroke="#B4A269" stroke-width="0.5" />
    </g>
  </g>
</svg>