<?xml version="1.0" encoding="utf-8"?>
<svg width="103px" height="103px" viewbox="0 0 103 103" version="1.1" xmlns:xlink="http://www.w3.org/1999/xlink" xmlns="http://www.w3.org/2000/svg">
  <g id="Group-12" transform="translate(0.39990234 0.4000244)">
    <path d="M51 102C79.1665 102 102 79.1665 102 51C102 22.8335 79.1665 0 51 0C22.8335 0 0 22.8335 0 51C0 79.1665 22.8335 102 51 102Z" id="Oval-Copy-2" fill="#B4A269" fill-rule="evenodd" stroke="none" />
    <g id="meeting" transform="translate(18 27)">
      <path d="M11.475 11.4074C12.3601 10.4025 12.8526 9.09466 12.8571 7.73684L12.8571 5.52632C12.8571 2.47427 10.4586 0 7.5 0C4.54138 0 2.14286 2.47427 2.14286 5.52632L2.14286 7.73684C2.14741 9.09466 2.63987 10.4025 3.525 11.4074C1.41442 12.1974 0.0065625 14.2629 0 16.5789L0 21L2.14286 21L2.14286 16.5789C2.14286 14.7477 3.58192 13.2632 5.35714 13.2632L6.42857 13.2632L6.42857 21L8.57143 21L8.57143 13.2632L9.64286 13.2632C11.4181 13.2632 12.8571 14.7477 12.8571 16.5789L12.8571 21L15 21L15 16.5789C14.9934 14.2629 13.5856 12.1974 11.475 11.4074ZM10.7143 7.73684C10.7143 9.56812 9.27522 11.0526 7.5 11.0526C5.72478 11.0526 4.28571 9.56812 4.28571 7.73684L4.28571 5.52632C4.28571 3.69503 5.72478 2.21053 7.5 2.21053C9.27522 2.21053 10.7143 3.69503 10.7143 5.52632L10.7143 7.73684Z" transform="translate(25 0)" id="Shape" fill="#FFFFFF" stroke="#B4A269" stroke-width="0.8" />
      <path d="M9.8132 17.2621L7.77767 14.1941L7.77767 5.58824C7.77406 2.50353 5.28882 0.00363235 2.22219 0L0 0L0 2.23529L2.22219 2.23529C4.06314 2.23529 5.55548 3.73643 5.55548 5.58824L5.55548 14.5294C5.55589 14.7501 5.62076 14.9659 5.74214 15.1497L6.81324 16.7647L3.33329 16.7647L3.33329 5.58824L1.1111 5.58824L1.1111 17.8824C1.1111 18.4996 1.60859 19 2.22219 19L8.88877 19C9.50237 19.0001 10 18.4997 10 17.8825C10 17.6618 9.935 17.4458 9.8132 17.2621Z" transform="translate(20 29)" id="Path" fill="#FFFFFF" fill-rule="evenodd" stroke="#B4A269" stroke-width="0.8" />
      <path d="M19 7.75695L19 5.54068C19 2.4807 16.498 0 13.4117 0C10.3254 0 7.82337 2.4807 7.82337 5.54068L7.82337 7.75695C7.82323 9.23936 8.42453 10.6594 9.49204 11.6975C7.4516 12.6327 6.01848 14.5182 5.6741 16.7207C4.6981 15.9448 3.48599 15.5194 2.23505 15.5139L1.11738 15.5139C0.500154 15.514 -0.000139679 16.0103 2.92531e-08 16.6223C2.92531e-08 16.6682 0.0029339 16.7139 0.00866192 16.7594L1.95563 32.2046C2.17008 33.874 3.48907 35.1923 5.17115 35.4182L1.1755 47.2997L3.29459 48L7.51042 35.4603L16.7647 35.4603L16.7647 47.6498L19 47.6498L19 34.3522C18.9964 31.2937 16.4964 28.8151 13.4117 28.8115L8.94103 28.8115C8.3238 28.8115 7.82337 28.3154 7.82337 27.7034L7.82337 17.7302C7.82337 15.2822 9.82496 13.2976 12.294 13.2976L12.294 25.4871L14.5293 25.4871L14.5293 13.9137C15.9078 14.6994 16.7596 16.1537 16.7647 17.7302L16.7647 27.7034L19 27.7034L19 17.7302C18.9983 15.656 18.0183 13.702 16.3511 12.4488C17.9933 11.4445 18.9953 9.67001 19 7.75695ZM8.94103 31.0278L13.4117 31.0278C14.8275 31.0336 16.0871 31.9205 16.559 33.2441L5.67522 33.2441C4.91241 33.2428 4.2692 32.6802 4.17308 31.9298L2.3837 17.7302C4.17727 17.8091 5.58985 19.2746 5.58804 21.0546L5.58804 27.7034C5.58804 29.5394 7.0892 31.0278 8.94103 31.0278ZM16.7647 7.75695C16.7647 9.59299 15.2635 11.0814 13.4117 11.0814C11.5599 11.0814 10.0587 9.59299 10.0587 7.75695L10.0587 5.54068C10.0587 3.70464 11.5599 2.21627 13.4117 2.21627C15.2635 2.21627 16.7647 3.70464 16.7647 5.54068L16.7647 7.75695Z" id="Shape" fill="#FFFFFF" stroke="#B4A269" stroke-width="0.8" />
      <path d="M0 0L0 2.18182L10.9091 2.18182L10.9091 24L13.0909 24L13.0909 2.18182L24 2.18182L24 0L0 0Z" transform="translate(21 23)" id="Path" fill="#FFFFFF" fill-rule="evenodd" stroke="#B4A269" stroke-width="0.8" />
      <path d="M4.44337 14.5294L4.44337 5.58824C4.44337 3.73643 5.93602 2.23529 7.77735 2.23529L10 2.23529L10 0L7.77735 0C4.71009 0.00363235 2.22433 2.50353 2.22072 5.58824L2.22072 14.1941L0.184765 17.2654C-0.15405 17.7801 -0.0137452 18.4736 0.498021 18.8143C0.679306 18.935 0.891986 18.9996 1.10939 19L7.77735 19C8.39108 19 8.88867 18.4996 8.88867 17.8824L8.88867 5.58824L6.66602 5.58824L6.66602 16.7647L3.18535 16.7647L4.25667 15.1497C4.37808 14.9659 4.44295 14.7501 4.44337 14.5294Z" transform="translate(36 29)" id="Path" fill="#FFFFFF" fill-rule="evenodd" stroke="#B4A269" stroke-width="0.8" />
      <path d="M17.0448 32.2002L18.9918 16.755C19.0659 16.1475 18.6291 15.5953 18.0164 15.5219C17.9722 15.5167 17.9276 15.5139 17.8831 15.5139L16.7654 15.5139C15.5144 15.5194 14.3023 15.9448 13.3262 16.7207C12.9818 14.5182 11.5487 12.6327 9.5082 11.6975C10.5757 10.6594 11.1771 9.23936 11.1769 7.75695L11.1769 5.54068C11.1769 2.4807 8.67482 0 5.58846 0C2.50209 0 0 2.4807 0 5.54068L0 7.75695C0.00475019 9.67001 1.00662 11.4445 2.64893 12.4488C0.981752 13.702 0.00167654 15.656 0 17.7302L0 27.7034L2.23538 27.7034L2.23538 17.7302C2.24041 16.1537 3.09223 14.6994 4.47077 13.9137L4.47077 25.4871L6.70615 25.4871L6.70615 13.2976C9.17527 13.2976 11.1769 15.2822 11.1769 17.7302L11.1769 27.7034C11.1769 28.3154 10.6765 28.8115 10.0592 28.8115L5.58846 28.8115C2.50363 28.8151 0.0036325 31.2937 0 34.3522L0 47.6498L2.23538 47.6498L2.23538 35.4603L11.4899 35.4603L15.7058 48L17.8294 47.2997L13.8292 35.4138C15.5112 35.188 16.8303 33.8696 17.0448 32.2002ZM8.94153 7.75695C8.94153 9.59299 7.44033 11.0814 5.58846 11.0814C3.73658 11.0814 2.23538 9.59299 2.23538 7.75695L2.23538 5.54068C2.23538 3.70464 3.73658 2.21627 5.58846 2.21627C7.44033 2.21627 8.94153 3.70464 8.94153 5.54068L8.94153 7.75695ZM13.3251 33.2441L2.44104 33.2441C2.91298 31.9205 4.17262 31.0336 5.58846 31.0278L10.0592 31.0278C11.9111 31.0278 13.4123 29.5394 13.4123 27.7034L13.4123 21.0546C13.4105 19.2746 14.8231 17.8091 16.6167 17.7302L14.8284 31.9265C14.7337 32.6785 14.0895 33.2432 13.3251 33.2441Z" transform="translate(47 0)" id="Shape" fill="#FFFFFF" stroke="#B4A269" stroke-width="0.8" />
    </g>
  </g>
</svg>