<?xml version="1.0" encoding="utf-8"?>
<svg width="103px" height="103px" viewbox="0 0 103 103" version="1.1" xmlns:xlink="http://www.w3.org/1999/xlink" xmlns="http://www.w3.org/2000/svg">
  <g id="Group-7" transform="translate(0.14990234 0.15002441)">
    <path d="M51 102C79.1665 102 102 79.1665 102 51C102 22.8335 79.1665 0 51 0C22.8335 0 0 22.8335 0 51C0 79.1665 22.8335 102 51 102Z" id="Oval-Copy-5" fill="#B4A269" fill-rule="evenodd" stroke="none" />
    <g id="diamond" transform="translate(26 30)">
      <path d="M48.9244 9.71395L41.2355 1.30839C40.4748 0.476938 39.3975 0 38.2797 0L11.7203 0C10.6025 0 9.52508 0.476938 8.76441 1.30839L1.07558 9.71395C-0.304821 11.2229 -0.363333 13.5512 0.939464 15.1296L21.9082 40.5351C22.6766 41.466 23.8036 42 25.0001 42C26.1965 42 27.3234 41.466 28.0918 40.5351L49.0605 15.1295C50.3633 13.5512 50.3048 11.2229 48.9244 9.71395ZM47.8021 10.772C48.03 11.0212 48.198 11.307 48.3093 11.6099L36.7505 11.6099L40.0033 2.25449C40.0408 2.29067 40.0776 2.32768 40.113 2.36645L47.8021 10.772ZM38.614 1.57874L35.3542 10.9542L26.7562 1.555L38.2796 1.555C38.3921 1.5549 38.5037 1.5635 38.614 1.57874ZM33.8637 11.6099L16.1363 11.6099L25 1.91998L33.8637 11.6099ZM23.2437 1.5549L14.6457 10.9542L11.3859 1.57874C11.4962 1.5635 11.6078 1.555 11.7202 1.555L23.2437 1.555L23.2437 1.5549ZM9.88687 2.36645C9.92231 2.32778 9.95917 2.29067 9.99675 2.25449L13.2495 11.6099L1.69083 11.6099C1.80214 11.307 1.97012 11.0212 2.19804 10.772L9.88687 2.36645ZM2.11359 14.1311C1.87454 13.8415 1.71126 13.5107 1.61935 13.1648L13.79 13.1648L22.8694 39.2787L2.11359 14.1311ZM24.8983 40.4424L15.4143 13.1648L34.5857 13.1648L25.1017 40.4424C25.0679 40.4438 25.0341 40.4452 25.0001 40.4452C24.966 40.4452 24.9321 40.4438 24.8983 40.4424ZM27.1306 39.2787L36.21 13.1649L48.3806 13.1649C48.2887 13.5107 48.1255 13.8416 47.8864 14.1312L27.1306 39.2787Z" id="Shape" fill="#FFFFFF" stroke="#B4A269" stroke-width="0.3" />
    </g>
  </g>
</svg>