<?xml version="1.0" encoding="utf-8"?>
<svg width="103px" height="103px" viewbox="0 0 103 103" version="1.1" xmlns:xlink="http://www.w3.org/1999/xlink" xmlns="http://www.w3.org/2000/svg">
  <g id="Group-3" transform="translate(0.5 0.5)">
    <path d="M51 102C79.1665 102 102 79.1665 102 51C102 22.8335 79.1665 0 51 0C22.8335 0 0 22.8335 0 51C0 79.1665 22.8335 102 51 102Z" id="Oval-Copy-4" fill="#B4A269" fill-rule="evenodd" stroke="none" />
    <g id="car" transform="translate(23 29)">
      <path d="M52.8964 15.605L51.6977 14.3519L47.4904 3.1558C46.7735 1.26464 44.9402 0.0116022 42.8953 0L12.8451 0C10.8002 0 8.96688 1.26464 8.25 3.1558L4.1015 14.2127L2.37393 15.7906C0.869658 17.0552 0 18.9116 0 20.8608L0 37.1735C0.0117521 39.842 2.2094 42 4.91239 42L8.01496 42C10.7179 42 12.9156 39.842 12.9274 37.1735L12.9274 34.8066L42.0726 34.8066L42.0726 37.1735C42.0844 39.842 44.2821 42 46.985 42L50.0876 42C52.7906 42 54.9882 39.842 55 37.1735L55 20.4315C54.9882 18.6099 54.2361 16.8696 52.8964 15.605ZM10.4594 3.94475C10.8355 2.95856 11.7874 2.32044 12.8451 2.32044L42.9071 2.32044C43.9647 2.32044 44.9167 2.97017 45.2927 3.94475L48.9594 13.6906L46.2212 13.6906C45.5748 9.33978 41.4733 6.33481 37.0662 6.98453C33.5523 7.49503 30.7906 10.2215 30.2735 13.6906L6.79274 13.6906L10.4594 3.94475ZM43.8237 13.6906L32.6474 13.6906C33.2938 10.6392 36.3259 8.69005 39.4167 9.32818C41.6261 9.79226 43.3536 11.4978 43.8237 13.6906ZM10.5769 37.1735C10.5652 38.5657 9.42521 39.6796 8.01496 39.6796L4.91239 39.6796C3.50214 39.6796 2.36218 38.5657 2.35043 37.1735L2.35043 34.1337C3.05556 34.5862 3.98397 34.8066 4.91239 34.8066L10.5769 34.8066L10.5769 37.1735ZM52.6496 37.1735C52.6378 38.5657 51.4979 39.6796 50.0876 39.6796L46.985 39.6796C45.5748 39.6796 44.4348 38.5541 44.4231 37.1735L44.4231 34.8066L50.0876 34.8066C51.016 34.8066 51.9444 34.5862 52.6496 34.1337L52.6496 37.1735ZM50.0876 32.4862L4.91239 32.4862C3.51389 32.4978 2.36218 31.3956 2.35043 30.0033L2.35043 20.8608C2.35043 19.5845 2.92628 18.3663 3.91346 17.5425C3.92521 17.5309 3.94872 17.5077 3.96047 17.4961L5.55876 16.011L50.0641 16.011L51.1923 17.2061C51.2041 17.2293 51.2393 17.2409 51.2511 17.2641C52.1325 18.0878 52.6378 19.2365 52.6378 20.4315L52.6378 30.0033L52.6496 30.0033C52.6378 31.384 51.4861 32.4978 50.0876 32.4862Z" id="Shape" fill="#FFFFFF" stroke="#B4A269" stroke-width="1" />
      <path d="M10.1815 0L1.19782 0C0.53902 0 0 0.536932 0 1.19318L0 7.39773C0 8.05398 0.53902 8.59091 1.19782 8.59091L10.1815 8.59091C10.8403 8.59091 11.3793 8.05398 11.3793 7.39773L11.3793 1.19318C11.3793 0.536932 10.8403 0 10.1815 0ZM8.98367 6.20455L2.39564 6.20455L2.39564 2.38636L8.98367 2.38636L8.98367 6.20455Z" transform="translate(5.6896553 20.045454)" id="Shape" fill="#FFFFFF" stroke="#B4A269" stroke-width="1" />
      <path d="M10.1815 0L1.19782 0C0.53902 0 0 0.536932 0 1.19318L0 7.39773C0 8.05398 0.53902 8.59091 1.19782 8.59091L10.1815 8.59091C10.8403 8.59091 11.3793 8.05398 11.3793 7.39773L11.3793 1.19318C11.3793 0.536932 10.8403 0 10.1815 0ZM8.98367 6.20455L2.39564 6.20455L2.39564 2.38636L8.98367 2.38636L8.98367 6.20455Z" transform="translate(37.931034 20.045454)" id="Shape" fill="#FFFFFF" stroke="#B4A269" stroke-width="1" />
      <path d="M12.1373 0L1.13858 0C0.512362 0 0 0.429545 0 0.954545C0 1.47955 0.512362 1.90909 1.13858 1.90909L12.1373 1.90909C12.7635 1.90909 13.2759 1.47955 13.2759 0.954545C13.2759 0.429545 12.7635 0 12.1373 0Z" transform="translate(20.862068 25.772728)" id="Path" fill="#FFFFFF" fill-rule="evenodd" stroke="#B4A269" stroke-width="1" />
      <path d="M12.1373 0L1.13858 0C0.512362 0 0 0.429545 0 0.954545C0 1.47955 0.512362 1.90909 1.13858 1.90909L12.1373 1.90909C12.7635 1.90909 13.2759 1.47955 13.2759 0.954545C13.2759 0.429545 12.7635 0 12.1373 0Z" transform="translate(20.862068 21.954546)" id="Path" fill="#FFFFFF" fill-rule="evenodd" stroke="#B4A269" stroke-width="1" />
    </g>
  </g>
</svg>