<?xml version="1.0" encoding="UTF-8"?>
<svg width="168px" height="42px" viewBox="0 0 168 42" version="1.1" xmlns="http://www.w3.org/2000/svg" xmlns:xlink="http://www.w3.org/1999/xlink">
    <!-- Generator: Sketch 63.1 (92452) - https://sketch.com -->
    <title>LOGO-BellavistaJuriquilla Copy</title>
    <desc>Created with Sketch.</desc>
    <g id="Symbols" stroke="none" stroke-width="1" fill="none" fill-rule="evenodd">
        <g id="Header" transform="translate(-29.000000, -22.000000)" fill-rule="nonzero">
            <g id="LOGO-BellavistaJuriquilla-Copy" transform="translate(29.000000, 22.000000)">
                <path d="M167.311475,27.8852459 C167.311475,28.7996926 166.558402,29.6065574 165.590164,29.6065574 C164.621926,29.6065574 163.868852,28.8534836 163.868852,27.8852459 C163.868852,26.9170082 164.621926,26.1639344 165.590164,26.1639344 C166.558402,26.1639344 167.311475,26.9170082 167.311475,27.8852459 Z M164.191598,27.8852459 C164.191598,28.6383197 164.83709,29.2838115 165.590164,29.2838115 C166.343238,29.2838115 166.98873,28.6921107 166.98873,27.8852459 C166.98873,27.1321721 166.343238,26.4866803 165.590164,26.4866803 C164.83709,26.4866803 164.191598,27.1321721 164.191598,27.8852459 Z M165.751537,26.9707992 C166.020492,26.9707992 166.289447,27.2397541 166.289447,27.508709 C166.289447,27.723873 166.128074,27.9390369 165.91291,27.9928279 L166.343238,28.7459016 L166.020492,28.7459016 L165.590164,27.9928279 L165.213627,27.9928279 L165.213627,28.7459016 L164.944672,28.7459016 L164.944672,26.9170082 L165.751537,26.9170082 L165.751537,26.9707992 Z M165.267418,27.7776639 L165.805328,27.7776639 C165.91291,27.7776639 166.074283,27.670082 166.074283,27.5625 C166.074283,27.3473361 165.91291,27.2935451 165.751537,27.2935451 L165.321209,27.2935451 L165.321209,27.7776639 L165.267418,27.7776639 Z" id="Shape" fill="#B4A269"/>
                <g id="Group" transform="translate(95.704918, 35.803279)" fill="#003A5D">
                    <path d="M0.207555239,5.06065574 L0.830220955,4.44098361 C1.14155381,4.85409836 1.45288667,5.06065574 1.91988596,5.06065574 C2.43877406,5.06065574 2.80199572,4.69918033 2.80199572,3.97622951 L2.80199572,0.413114754 L3.78788311,0.413114754 L3.78788311,3.97622951 C3.78788311,4.59590164 3.58032787,5.11229508 3.26899501,5.42213115 C2.95766215,5.73196721 2.49066287,5.88688525 1.91988596,5.88688525 C1.089665,5.93852459 0.570776907,5.52540984 0.207555239,5.06065574 Z" id="Path"/>
                    <path d="M7.52387741,3.51147541 L7.52387741,0.36147541 L8.45787598,0.36147541 L8.45787598,3.45983607 C8.45787598,4.49262295 8.97676408,5.00901639 9.85887384,5.00901639 C10.6890948,5.00901639 11.2079829,4.49262295 11.2079829,3.51147541 L11.2079829,0.36147541 L12.1419815,0.36147541 L12.1419815,3.45983607 C12.1419815,5.06065574 11.2079829,5.88688525 9.80698503,5.88688525 C8.40598717,5.93852459 7.52387741,5.11229508 7.52387741,3.51147541 Z" id="Path"/>
                    <path d="M15.9817534,0.413114754 L18.4205274,0.413114754 C19.095082,0.413114754 19.6658589,0.619672131 19.9771917,0.981147541 C20.2885246,1.29098361 20.444191,1.70409836 20.444191,2.16885246 L20.444191,2.16885246 C20.444191,3.04672131 19.9253029,3.6147541 19.1469708,3.82131148 L20.5998574,5.88688525 L19.4583036,5.88688525 L18.1091946,3.97622951 L16.915752,3.97622951 L16.915752,5.88688525 L15.9817534,5.88688525 L15.9817534,0.413114754 L15.9817534,0.413114754 Z M18.3686386,3.09836066 C19.0431932,3.09836066 19.5101924,2.73688525 19.5101924,2.16885246 L19.5101924,2.16885246 C19.5101924,1.60081967 19.095082,1.29098361 18.3686386,1.29098361 L16.9676408,1.29098361 L16.9676408,3.09836066 L18.3686386,3.09836066 Z" id="Shape"/>
                    <polygon id="Path" points="24.1801853 0.413114754 25.1141839 0.413114754 25.1141839 5.8352459 24.1801853 5.8352459"/>
                    <path d="M33.3645046,5.42213115 C32.8975053,5.73196721 32.3267284,5.93852459 31.7040627,5.93852459 C30.0436208,5.93852459 28.8501782,4.64754098 28.8501782,3.15 L28.8501782,3.15 C28.8501782,1.60081967 30.0436208,0.36147541 31.7040627,0.36147541 C33.3645046,0.36147541 34.5579473,1.65245902 34.5579473,3.15 L34.5579473,3.15 C34.5579473,3.76967213 34.350392,4.33770492 33.9871703,4.80245902 L34.6098361,5.31885246 L33.9871703,5.99016393 L33.3645046,5.42213115 Z M32.6380613,4.80245902 L31.7040627,4.02786885 L32.3267284,3.30491803 L33.260727,4.18278689 C33.4682823,3.87295082 33.5201711,3.56311475 33.5201711,3.15 L33.5201711,3.15 C33.5201711,2.11721311 32.7418389,1.23934426 31.6521739,1.23934426 C30.5625089,1.23934426 29.8360656,2.11721311 29.8360656,3.15 L29.8360656,3.15 C29.8360656,4.18278689 30.6143977,5.06065574 31.7040627,5.06065574 C32.0672844,5.06065574 32.3786172,4.95737705 32.6380613,4.80245902 Z" id="Shape"/>
                    <path d="M38.1382751,3.51147541 L38.1382751,0.36147541 L39.0722737,0.36147541 L39.0722737,3.45983607 C39.0722737,4.49262295 39.5911618,5.00901639 40.4732716,5.00901639 C41.3034925,5.00901639 41.8223806,4.49262295 41.8223806,3.51147541 L41.8223806,0.36147541 L42.7563792,0.36147541 L42.7563792,3.45983607 C42.7563792,5.06065574 41.8223806,5.88688525 40.4213828,5.88688525 C39.0203849,5.93852459 38.1382751,5.11229508 38.1382751,3.51147541 Z" id="Path"/>
                    <polygon id="Path" points="46.6999287 0.413114754 47.6339273 0.413114754 47.6339273 5.8352459 46.6999287 5.8352459"/>
                    <polygon id="Path" points="51.5774768 0.413114754 52.5114754 0.413114754 52.5114754 4.95737705 55.3653599 4.95737705 55.3653599 5.8352459 51.525588 5.8352459 51.525588 0.413114754"/>
                    <polygon id="Path" points="58.893799 0.413114754 59.8277976 0.413114754 59.8277976 4.95737705 62.6816821 4.95737705 62.6816821 5.8352459 58.8419102 5.8352459 58.8419102 0.413114754"/>
                    <path d="M68.1818959,0.36147541 L69.0640057,0.36147541 L71.4508909,5.8352459 L70.4131148,5.8352459 L69.8423378,4.5442623 L67.2478974,4.5442623 L66.6771205,5.8352459 L65.6912331,5.8352459 L68.1818959,0.36147541 Z M69.531005,3.66639344 L68.5970064,1.49754098 L67.6630078,3.66639344 L69.531005,3.66639344 Z" id="Shape"/>
                </g>
                <polygon id="Path" fill="#003A5D" points="17.9016393 12.3934426 29.5034303 12.3934426 29.5034303 14.093722 19.7063624 14.093722 19.7063624 19.7258974 28.47216 19.7258974 28.47216 21.4261768 19.7063624 21.4261768 19.7063624 27.2177534 29.6065574 27.2177534 29.6065574 28.9180328 17.9016393 28.9180328"/>
                <polygon id="Path" fill="#003A5D" points="35.8032787 12.3934426 37.6393443 12.3934426 37.6393443 27.2177534 46.8196721 27.2177534 46.8196721 28.9180328 35.8032787 28.9180328"/>
                <polygon id="Path" fill="#003A5D" points="51.6393443 12.3934426 53.4754098 12.3934426 53.4754098 27.2177534 62.6557377 27.2177534 62.6557377 28.9180328 51.6393443 28.9180328"/>
                <polygon id="Path" fill="#003A5D" points="87.442623 42 85.4286885 42 74.5327869 15.4309049 68.7491803 29.4723324 66.7868852 29.4723324 73.7065574 13.0819672 75.307377 13.0819672"/>
                <polygon id="Path" fill="#B4A269" points="79.1803279 0 81.1993097 0 92.1225194 26.5212229 97.8688525 12.5571998 99.8360656 12.5571998 92.8990509 28.9180328 91.2942192 28.9180328"/>
                <polygon id="Path" fill="#B4A269" points="162.491803 28.9180328 160.42623 28.9180328 154.547289 14.8142425 148.668348 28.9180328 146.655738 28.9180328 153.752837 12.3934426 155.394704 12.3934426"/>
                <polygon id="Path" fill="#B4A269" points="105.344262 12.3934426 107.409836 12.3934426 107.409836 28.9180328 105.344262 28.9180328"/>
                <path d="M114.983607,26.4242435 L116.153803,25.078115 C117.855907,26.579566 119.55801,27.3561786 121.845212,27.3561786 C124.079223,27.3561786 125.515373,26.2171468 125.515373,24.6121474 L125.515373,24.5603732 C125.515373,23.0589222 124.664321,22.2305355 121.206923,21.505697 C117.37719,20.6773103 115.621895,19.4865043 115.621895,16.8460215 L115.621895,16.7942473 C115.621895,14.2573128 117.909097,12.3934426 121.047351,12.3934426 C123.440934,12.3934426 125.196229,13.0665069 126.845142,14.3608612 L125.781327,15.7587639 C124.238795,14.5161837 122.696264,13.998442 120.99416,13.998442 C118.866531,13.998442 117.483571,15.1374738 117.483571,16.5871506 L117.483571,16.6389248 C117.483571,18.1403758 118.334623,19.0205367 122.004784,19.7453752 C125.674945,20.5219878 127.377049,21.8163421 127.377049,24.3015024 L127.377049,24.3532765 C127.377049,27.0973077 125.036657,28.9094038 121.738831,28.9094038 C119.079294,29.0129521 116.951664,28.1845653 114.983607,26.4242435 Z" id="Path" fill="#B4A269"/>
                <polygon id="Path" fill="#B4A269" points="136.819672 14.093722 131.508197 14.093722 131.508197 12.3934426 143.901639 12.3934426 143.901639 14.093722 138.640749 14.093722 138.640749 28.9180328 136.819672 28.9180328"/>
                <path d="M8.34611547,20.3653695 C9.56749822,19.7846331 10.8397719,18.6759545 10.8397719,16.5641858 L10.8397719,16.5113916 C10.8397719,15.4555073 10.4835353,14.6107998 9.82195296,13.8716807 C8.90591589,12.974179 7.48096935,12.3934426 5.69978617,12.3934426 L0.050890948,12.3934426 L0.050890948,14.0828576 L5.54711333,14.0828576 C7.78631504,14.0828576 9.05858874,15.1387419 9.05858874,16.7753627 L9.05858874,16.8281569 C9.05858874,18.7287488 7.58275125,19.7846331 5.39444048,19.7846331 L0,19.7846331 L0,21.4212539 L5.69978617,21.4212539 C8.44789736,21.4212539 9.92373485,22.4771382 9.92373485,24.2193474 L9.92373485,24.2721416 C9.92373485,26.1199392 8.44789736,27.2286178 6.00513186,27.2286178 L0,27.2286178 L0,28.9180328 L5.95424091,28.9180328 C9.41482537,28.9180328 11.704918,27.2286178 11.704918,24.4305243 L11.704918,24.3777301 C11.704918,22.0547845 10.2290805,20.9461059 8.34611547,20.3653695 Z" id="Path" fill="#003A5D"/>
            </g>
        </g>
    </g>
</svg>