<?xml version="1.0" encoding="utf-8"?>
<svg width="26px" height="26px" viewbox="0 0 26 26" version="1.1" xmlns:xlink="http://www.w3.org/1999/xlink" xmlns="http://www.w3.org/2000/svg">
  <g id="Group-6">
    <g id="Group-5">
      <path d="M10.6334 9.22524L3.92477 9.22524L3.92477 5.17471C3.92477 5.12495 3.91731 5.07539 3.90261 5.02779L2.64475 0.947953C2.4699 0.380961 1.95058 0 1.35241 0C0.920972 0 0.525791 0.196789 0.268236 0.5399C0.0106806 0.88301 -0.0658912 1.31474 0.0580436 1.7243L1.19217 5.47203L1.19217 9.86622C1.19217 10.8816 1.88806 11.7385 2.83177 11.9941L2.02918 16.7476C1.98294 17.0214 2.1694 17.2805 2.44561 17.3263C2.47396 17.331 2.5021 17.3333 2.52994 17.3333C2.7732 17.3333 2.98801 17.1593 3.02949 16.9135L3.19145 15.9543L9.81588 15.9543L9.97784 16.9135C10.0193 17.1593 10.2341 17.3333 10.4774 17.3333C10.5052 17.3333 10.5334 17.331 10.5617 17.3263C10.8379 17.2805 11.0244 17.0214 10.9781 16.7476L10.1887 12.0722L10.6334 12.0722C11.3869 12.0722 12 11.4645 12 10.7175L12 10.5799C12 9.83295 11.3869 9.22524 10.6334 9.22524ZM2.20642 9.86622L2.20642 5.39824C2.20642 5.34928 2.19921 5.30068 2.18507 5.25383L1.02954 1.43543C0.998609 1.33329 1.01773 1.22557 1.08198 1.13997C1.14623 1.05436 1.24481 1.00526 1.35246 1.00526C1.5017 1.00526 1.63126 1.10031 1.67487 1.24175L2.91057 5.24976L2.91057 9.72784L2.91057 10.9564C2.49526 10.7659 2.20642 10.3489 2.20642 9.86622ZM9.64615 14.9489L3.36123 14.9489L3.84693 12.0722L9.16045 12.0722L9.64615 14.9489ZM10.9858 10.7175C10.9858 10.9101 10.8277 11.0668 10.6334 11.0668L3.92477 11.0668L3.92477 10.2305L10.6334 10.2305C10.8277 10.2305 10.9858 10.3872 10.9858 10.5798L10.9858 10.7175Z" transform="translate(5.1316976E-14 8)" id="Shape" fill="#A8965E" stroke="none" />
      <path d="M15.8388 6.96436L8.34139 0.12977C8.15206 -0.0426291 7.84886 -0.0438662 7.65958 0.12972L0.161174 6.9648C-0.0264492 7.13587 -0.0537618 7.41846 0.0976624 7.62139C0.24502 7.81868 0.515685 7.87935 0.734086 7.76692C1.10582 7.59561 1.50998 7.47591 1.90833 7.38393C2.62664 7.21796 3.40911 7.15081 4.1227 7.37398C4.33046 7.43895 4.53008 7.52965 4.71248 7.64752C4.82425 7.71977 4.92064 7.80082 5.05831 7.81888C5.17509 7.83417 5.28304 7.80547 5.38541 7.75173C6.0494 7.3908 6.7655 7.17625 7.49144 7.10796L7.49144 13.8365L5.98834 13.8365L6.37469 11.6357C6.39994 11.4919 6.35942 11.3443 6.26408 11.2326C6.16869 11.1209 6.02811 11.0565 5.88 11.0565L3.22882 11.0565C3.08076 11.0565 2.94023 11.1209 2.84484 11.2325C2.74944 11.3441 2.70888 11.4915 2.73403 11.6353L3.11877 13.8365L1.74992 13.8365C0.986777 13.8365 0.365918 14.4484 0.365918 15.2006C0.365918 15.9527 0.986777 16.5646 1.74992 16.5646L6.63476 16.5646L6.63476 22.13L4.36952 24.4991C4.17934 24.698 4.18873 25.0112 4.39056 25.1986C4.48756 25.2887 4.61127 25.3333 4.73478 25.3333C4.86828 25.3333 5.00153 25.2812 5.10023 25.1779L6.63471 23.573L6.63471 23.9942C6.63471 24.7326 7.24427 25.3333 7.99346 25.3333C8.74265 25.3333 9.35221 24.7326 9.35221 23.9942L9.35221 23.573L10.8867 25.1779C10.9854 25.2812 11.1186 25.3333 11.2521 25.3333C11.3757 25.3333 11.4994 25.2887 11.5964 25.1986C11.7982 25.0112 11.8076 24.698 11.6174 24.4991L9.35216 22.13L9.35216 16.5646L14.2369 16.5646C15.0001 16.5646 15.621 15.9527 15.621 15.2006C15.621 14.4484 15.0001 13.8365 14.2369 13.8365L13.1335 13.8365C12.8563 13.8365 12.6315 14.058 12.6315 14.3313C12.6315 14.6045 12.8563 14.8261 13.1335 14.8261L14.2369 14.8261C14.4465 14.8261 14.6169 14.9941 14.6169 15.2006C14.6169 15.407 14.4464 15.5749 14.2369 15.5749L8.85019 15.5749L7.13688 15.5749L1.74997 15.5749C1.54051 15.5749 1.37011 15.4069 1.37011 15.2006C1.37011 14.9941 1.54051 14.8261 1.74997 14.8261L3.71477 14.8261L5.39199 14.8261L9.18397 14.8261C9.46121 14.8261 9.68604 14.6045 9.68604 14.3313C9.68604 14.058 9.46121 13.8365 9.18397 13.8365L8.49563 13.8365L8.49563 7.10677C9.22634 7.17357 9.94721 7.38853 10.6152 7.75178C10.717 7.80557 10.8256 7.83432 10.9419 7.81908C11.0656 7.80285 11.1545 7.73684 11.2543 7.66974C11.415 7.56157 11.5899 7.47478 11.7726 7.40886C12.1346 7.27828 12.5228 7.22984 12.9069 7.23271C13.5649 7.2376 14.2215 7.38343 14.8397 7.59962C14.9832 7.6498 15.1274 7.7024 15.2654 7.76618C15.4846 7.87925 15.7561 7.81799 15.9032 7.61976C16.0537 7.41683 16.026 7.13498 15.8388 6.96436ZM8.34812 16.5647L8.34812 23.9943C8.34812 24.1871 8.18906 24.3438 7.99351 24.3438C7.79795 24.3438 7.6389 24.1871 7.6389 23.9943L7.6389 16.5647L8.34812 16.5647ZM4.13777 13.8366L3.82483 12.0462L5.28369 12.0462L4.96939 13.8366L4.13777 13.8366ZM0.754176 7.79497C0.764576 7.78947 0.774876 7.78377 0.785176 7.77787C0.779576 7.78117 0.769376 7.78717 0.754176 7.79497ZM3.12454 6.24161C2.86959 6.24161 2.61941 6.26007 2.37942 6.29085L6.65931 2.38956L4.88485 6.60843C4.31886 6.33889 3.7096 6.24161 3.12454 6.24161ZM8.00044 1.78532L9.93868 6.39436C9.3136 6.1994 8.65885 6.0986 8.00044 6.0986C8.00039 6.0986 8.00049 6.0986 8.00039 6.0986C7.99848 6.0986 7.99662 6.0987 7.99471 6.0987C7.99431 6.0987 7.99391 6.09865 7.99351 6.09865C7.99261 6.09865 7.9917 6.0988 7.9908 6.0988C7.33565 6.09979 6.68391 6.20039 6.0618 6.39446L8.00044 1.78532ZM11.116 6.60907L9.34157 2.38951L13.6273 6.29634C12.8338 6.19426 11.9281 6.22429 11.116 6.60907Z" transform="translate(10 3.2500752E-14)" id="Shape" fill="#A8965E" stroke="none" />
    </g>
  </g>
</svg>